<?xml version="1.0" ?><!DOCTYPE svg  PUBLIC '-//W3C//DTD SVG 1.1//EN'  'http://www.w3.org/Graphics/SVG/1.1/DTD/svg11.dtd'><svg height="512px" style="enable-background:new 0 0 512 512;" version="1.1" viewBox="0 0 512 512" width="512px" xml:space="preserve" xmlns="http://www.w3.org/2000/svg" xmlns:xlink="http://www.w3.org/1999/xlink"><g id="_x31_13-fiverr"><path d="M376,16H136C69.726,16,16,69.726,16,136v240c0,66.274,53.726,120,120,120h240c66.274,0,120-53.726,120-120V136   C496,69.726,442.274,16,376,16z M342.286,85.025c17.375,0,31.465,14.073,31.465,31.438c0,17.365-14.09,31.439-31.465,31.439   c-17.373,0-31.459-14.074-31.459-31.439C310.827,99.099,324.913,85.025,342.286,85.025z M416,420H269v-63h42V253H206v104h42v63H101   v-63h42V253h-42v-63h42v-10.661C143,127.341,185.381,85,237.416,85H269v63h-31.584C220.072,148,206,162.004,206,179.339V190h168   v167h42V420z"/></g><g id="Layer_1"/></svg>